<svg width="204" height="68" viewBox="0 0 204 68" fill="none" xmlns="http://www.w3.org/2000/svg">
<g filter="url(#filter0_d_3_133)">
<path d="M82.9008 30.18C80.7915 30.18 79.0368 29.928 77.6368 29.424C76.2555 28.92 75.2195 28.0893 74.5288 26.932C73.8568 25.756 73.5208 24.188 73.5208 22.228C73.5208 20.2307 73.8662 18.6627 74.5568 17.524C75.2662 16.3853 76.3115 15.5733 77.6928 15.088C79.0928 14.6027 80.8288 14.36 82.9008 14.36C85.0288 14.36 86.7835 14.612 88.1648 15.116C89.5462 15.6013 90.5728 16.4227 91.2448 17.58C91.9355 18.7187 92.2808 20.268 92.2808 22.228C92.2808 24.2253 91.9262 25.812 91.2168 26.988C90.5262 28.1453 89.4808 28.9667 88.0808 29.452C86.6995 29.9373 84.9728 30.18 82.9008 30.18ZM82.9008 27.856C84.1702 27.856 85.2155 27.7813 86.0368 27.632C86.8768 27.464 87.5208 27.184 87.9688 26.792C88.4355 26.3813 88.7528 25.8213 88.9208 25.112C89.1075 24.384 89.2008 23.4507 89.2008 22.312C89.2008 21.1547 89.1075 20.212 88.9208 19.484C88.7528 18.7373 88.4355 18.1587 87.9688 17.748C87.5208 17.3373 86.8768 17.0573 86.0368 16.908C85.2155 16.74 84.1702 16.656 82.9008 16.656C81.6502 16.656 80.6142 16.74 79.7928 16.908C78.9715 17.0573 78.3275 17.3373 77.8608 17.748C77.3942 18.1587 77.0675 18.7373 76.8808 19.484C76.7128 20.212 76.6288 21.1547 76.6288 22.312C76.6288 23.4507 76.7222 24.384 76.9088 25.112C77.0955 25.8213 77.4222 26.3813 77.8888 26.792C78.3555 27.184 78.9995 27.464 79.8208 27.632C80.6422 27.7813 81.6688 27.856 82.9008 27.856ZM81.4168 32.028L81.5008 23.04L81.4168 12.484H84.4128L84.3008 21.108L84.4128 32L81.4168 32.028ZM96.2249 32L96.3369 22.928L96.2249 12.484C96.2249 12.484 96.4302 12.4653 96.8409 12.428C97.2702 12.3907 97.8209 12.344 98.4929 12.288C99.1649 12.232 99.9022 12.1853 100.705 12.148C101.508 12.1107 102.282 12.092 103.029 12.092C104.802 12.092 106.174 12.652 107.145 13.772C108.134 14.8733 108.629 16.5347 108.629 18.756C108.629 20.1373 108.452 21.2853 108.097 22.2C107.742 23.096 107.266 23.796 106.669 24.3C106.09 24.804 105.428 25.168 104.681 25.392C103.953 25.5973 103.206 25.7 102.441 25.7C101.825 25.7 101.19 25.6813 100.537 25.644C99.8836 25.588 99.4356 25.56 99.1929 25.56V32H96.2249ZM102.581 23.264C103.141 23.264 103.589 23.2267 103.925 23.152C104.28 23.0773 104.56 22.9467 104.765 22.76C105.045 22.48 105.232 21.9853 105.325 21.276C105.437 20.5667 105.493 19.6333 105.493 18.476C105.493 17.5427 105.446 16.8333 105.353 16.348C105.278 15.844 105.176 15.4893 105.045 15.284C104.914 15.06 104.784 14.9107 104.653 14.836C104.485 14.7053 104.205 14.6027 103.813 14.528C103.421 14.4347 102.954 14.388 102.413 14.388C101.778 14.388 101.172 14.416 100.593 14.472C100.014 14.528 99.5476 14.584 99.1929 14.64V22.956C99.3796 22.9747 99.7996 23.0307 100.453 23.124C101.125 23.2173 101.834 23.264 102.581 23.264ZM112.823 32V12.484H123.071V15.06L114.475 14.948L115.847 13.632L115.623 21.92L114.335 20.828H122.371V23.32H114.335L115.623 22.172L115.847 30.824L114.475 29.48L123.071 29.424V32H112.823ZM127.533 32V12.484H130.501L130.417 21.948V30.768L129.073 29.424H137.837L136.493 30.768L136.521 22.088L136.465 12.484H139.433L139.349 22.088L139.405 30.768L138.061 29.424H146.741L145.397 30.768V22.004L145.313 12.484H148.281V32H127.533ZM160.392 32.392C159.365 32.392 158.395 32.2427 157.48 31.944C156.565 31.6453 155.753 31.1227 155.044 30.376C154.353 29.6293 153.812 28.5933 153.42 27.268C153.028 25.9427 152.832 24.2533 152.832 22.2C152.832 20.1467 153.028 18.4667 153.42 17.16C153.812 15.8347 154.353 14.808 155.044 14.08C155.753 13.3333 156.565 12.82 157.48 12.54C158.395 12.2413 159.365 12.092 160.392 12.092C161.419 12.092 162.38 12.2413 163.276 12.54C164.191 12.82 164.993 13.3333 165.684 14.08C166.393 14.808 166.944 15.8253 167.336 17.132C167.728 18.4387 167.924 20.128 167.924 22.2C167.924 24.2533 167.728 25.9427 167.336 27.268C166.944 28.5933 166.393 29.6293 165.684 30.376C164.993 31.1227 164.191 31.6453 163.276 31.944C162.38 32.2427 161.419 32.392 160.392 32.392ZM160.392 29.732C161.139 29.732 161.792 29.648 162.352 29.48C162.912 29.312 163.369 28.976 163.724 28.472C164.097 27.9493 164.368 27.1933 164.536 26.204C164.723 25.2147 164.816 23.8987 164.816 22.256C164.816 20.632 164.732 19.3253 164.564 18.336C164.396 17.328 164.135 16.572 163.78 16.068C163.425 15.5453 162.959 15.1907 162.38 15.004C161.82 14.8173 161.157 14.724 160.392 14.724C159.589 14.724 158.908 14.8173 158.348 15.004C157.807 15.1907 157.359 15.5453 157.004 16.068C156.649 16.572 156.388 17.328 156.22 18.336C156.052 19.3253 155.968 20.6413 155.968 22.284C155.968 23.908 156.052 25.2147 156.22 26.204C156.388 27.1933 156.649 27.9493 157.004 28.472C157.377 28.976 157.844 29.312 158.404 29.48C158.964 29.648 159.627 29.732 160.392 29.732ZM183.295 32L175.539 21.892L182.735 12.484H186.319L178.899 21.724V21.892L187.047 32H183.295ZM172.487 32L172.571 22.088L172.487 12.484H175.483V32H172.487Z" fill="white"/>
<path d="M86.2804 50.168C85.8404 50.168 85.4244 50.104 85.0324 49.976C84.6404 49.848 84.2924 49.624 83.9884 49.304C83.6924 48.984 83.4604 48.54 83.2924 47.972C83.1244 47.404 83.0404 46.68 83.0404 45.8C83.0404 44.92 83.1244 44.2 83.2924 43.64C83.4604 43.072 83.6924 42.632 83.9884 42.32C84.2924 42 84.6404 41.78 85.0324 41.66C85.4244 41.532 85.8404 41.468 86.2804 41.468C86.7204 41.468 87.1324 41.532 87.5164 41.66C87.9084 41.78 88.2524 42 88.5484 42.32C88.8524 42.632 89.0884 43.068 89.2564 43.628C89.4244 44.188 89.5084 44.912 89.5084 45.8C89.5084 46.68 89.4244 47.404 89.2564 47.972C89.0884 48.54 88.8524 48.984 88.5484 49.304C88.2524 49.624 87.9084 49.848 87.5164 49.976C87.1324 50.104 86.7204 50.168 86.2804 50.168ZM86.2804 49.028C86.6004 49.028 86.8804 48.992 87.1204 48.92C87.3604 48.848 87.5564 48.704 87.7084 48.488C87.8684 48.264 87.9844 47.94 88.0564 47.516C88.1364 47.092 88.1764 46.528 88.1764 45.824C88.1764 45.128 88.1404 44.568 88.0684 44.144C87.9964 43.712 87.8844 43.388 87.7324 43.172C87.5804 42.948 87.3804 42.796 87.1324 42.716C86.8924 42.636 86.6084 42.596 86.2804 42.596C85.9364 42.596 85.6444 42.636 85.4044 42.716C85.1724 42.796 84.9804 42.948 84.8284 43.172C84.6764 43.388 84.5644 43.712 84.4924 44.144C84.4204 44.568 84.3844 45.132 84.3844 45.836C84.3844 46.532 84.4204 47.092 84.4924 47.516C84.5644 47.94 84.6764 48.264 84.8284 48.488C84.9884 48.704 85.1884 48.848 85.4284 48.92C85.6684 48.992 85.9524 49.028 86.2804 49.028ZM91.4638 50V41.636H92.7358L92.6998 45.608L92.1358 45.188H96.5638L95.9998 45.608L95.9638 41.636H97.2358V50H95.9638L95.9998 45.872L96.5638 46.292H92.1358L92.6998 45.872L92.7358 50H91.4638ZM98.8649 50.168L98.6489 49.22C98.7609 49.204 98.8649 49.188 98.9609 49.172C99.0569 49.148 99.1369 49.124 99.2009 49.1C99.3609 49.044 99.4849 48.964 99.5729 48.86C99.6609 48.756 99.7289 48.58 99.7769 48.332C99.8329 48.084 99.8729 47.724 99.8969 47.252L100.269 41.636H105.117V50H103.845L103.905 42.728H101.433L101.121 47.372C101.081 47.94 101.013 48.416 100.917 48.8C100.821 49.184 100.653 49.476 100.413 49.676C100.245 49.82 100.021 49.936 99.7409 50.024C99.4689 50.12 99.1769 50.168 98.8649 50.168ZM106.296 50L108.576 41.636H110.304L112.584 50H111.288L110.64 47.444L111.312 47.888H107.592L108.24 47.444L107.604 50H106.296ZM108.252 47.372L107.82 46.796H111.072L110.64 47.372L109.344 42.224L110.052 42.776H108.84L109.536 42.224L108.252 47.372ZM113.788 50V41.636H115.012L114.964 45.884V48.176L118.06 41.636H119.812V50H118.588L118.636 46.148V42.932L115.3 50H113.788ZM116.776 41.324C116.168 41.324 115.696 41.18 115.36 40.892C115.032 40.604 114.852 40.144 114.82 39.512L115.636 39.476C115.676 39.764 115.78 39.98 115.948 40.124C116.116 40.268 116.392 40.34 116.776 40.34C117.2 40.34 117.496 40.268 117.664 40.124C117.832 39.98 117.936 39.764 117.976 39.476L118.696 39.512C118.68 39.936 118.592 40.284 118.432 40.556C118.272 40.82 118.052 41.016 117.772 41.144C117.5 41.264 117.168 41.324 116.776 41.324ZM122.167 50V41.636H123.439L123.403 45.608L122.839 45.188H127.267L126.703 45.608L126.667 41.636H127.939V50H126.667L126.703 45.872L127.267 46.292H122.839L123.403 45.872L123.439 50H122.167ZM129.58 46.604V45.536H132.436V46.604H129.58ZM134.037 50L134.325 41.636H136.065L137.805 46.88H137.889L139.653 41.636H141.393L141.681 50H140.421L140.373 42.968H140.289L138.573 48.104H137.133L135.429 42.968H135.345L135.297 50H134.037ZM142.799 50L145.079 41.636H146.807L149.088 50H147.791L147.143 47.444L147.815 47.888H144.095L144.743 47.444L144.107 50H142.799ZM144.755 47.372L144.323 46.796H147.575L147.143 47.372L145.847 42.224L146.555 42.776H145.343L146.039 42.224L144.755 47.372ZM150.292 50L150.34 46.112L150.292 41.636C150.292 41.636 150.38 41.628 150.556 41.612C150.74 41.596 150.976 41.576 151.264 41.552C151.552 41.528 151.868 41.508 152.212 41.492C152.556 41.476 152.888 41.468 153.208 41.468C153.968 41.468 154.556 41.708 154.972 42.188C155.396 42.66 155.608 43.372 155.608 44.324C155.608 44.916 155.532 45.408 155.38 45.8C155.228 46.184 155.024 46.484 154.768 46.7C154.52 46.916 154.236 47.072 153.916 47.168C153.604 47.256 153.284 47.3 152.956 47.3C152.692 47.3 152.42 47.292 152.14 47.276C151.86 47.252 151.668 47.24 151.564 47.24V50H150.292ZM153.016 46.256C153.256 46.256 153.448 46.24 153.592 46.208C153.744 46.176 153.864 46.12 153.952 46.04C154.072 45.92 154.152 45.708 154.192 45.404C154.24 45.1 154.264 44.7 154.264 44.204C154.264 43.804 154.244 43.5 154.204 43.292C154.172 43.076 154.128 42.924 154.072 42.836C154.016 42.74 153.96 42.676 153.904 42.644C153.832 42.588 153.712 42.544 153.544 42.512C153.376 42.472 153.176 42.452 152.944 42.452C152.672 42.452 152.412 42.464 152.164 42.488C151.916 42.512 151.716 42.536 151.564 42.56V46.124C151.644 46.132 151.824 46.156 152.104 46.196C152.392 46.236 152.696 46.256 153.016 46.256ZM162.037 50L158.713 45.668L161.797 41.636H163.333L160.153 45.596V45.668L163.645 50H162.037ZM157.405 50L157.441 45.752L157.405 41.636H158.689V50H157.405ZM164.636 50V41.636H169.028V42.74L165.344 42.692L165.932 42.128L165.836 45.68L165.284 45.212H168.728V46.28H165.284L165.836 45.788L165.932 49.496L165.344 48.92L169.028 48.896V50H164.636ZM172.044 50L172.068 42.704L169.728 42.74V41.636H175.644V42.74L173.28 42.704L173.304 50H172.044Z" fill="white"/>
<path opacity="0.2" d="M58.6484 59.0669C58.6484 58.5552 47.1741 58.1338 33.0368 58.1338C18.8994 58.1338 7.42517 58.5552 7.42517 59.0669C7.42517 59.5786 18.8994 60 33.0368 60C47.207 60 58.6484 59.5786 58.6484 59.0669Z" fill="#5D5D5D"/>
<path d="M33.3984 11.8098C44.5439 11.8098 53.5852 20.0873 53.5852 30.2913V48.7727H33.3984C22.2529 48.7727 13.2116 40.4952 13.2116 30.2913V11.8098H33.3984Z" fill="white"/>
<path opacity="0.3" d="M50.692 20.7797C49.0152 22.5556 47.996 24.8733 47.996 27.4017C47.996 31.1642 50.2317 34.4451 53.5523 36.221V30.2913C53.5523 26.8298 52.5331 23.579 50.692 20.7797Z" fill="white"/>
<path d="M42.7685 13.9469C39.6122 15.6024 37.5081 18.7027 37.5081 22.2846C37.5081 27.5822 42.2096 31.8866 47.996 31.8866C50.0344 31.8866 51.9413 31.3448 53.5523 30.4117V30.2912C53.5523 23.1876 49.1796 17.0171 42.7685 13.9469Z" fill="white"/>
<path opacity="0.5" d="M26.9215 15.3909C21.7269 15.3909 16.9596 17.0464 13.2116 19.8457V30.3205C13.2116 40.5245 22.2529 48.802 33.3984 48.802H43.0644C46.5823 45.2502 48.7193 40.5546 48.7193 35.3773C48.7193 24.3306 38.9547 15.3909 26.9215 15.3909Z" fill="#F8F6EC"/>
<path d="M53.5523 48.7426L33.3984 48.7727C22.2529 48.7727 13.2116 40.4951 13.2116 30.2912V11.8398L53.5523 48.7426Z" fill="white"/>
<path opacity="0.3" d="M16.335 18.4318C16.335 32.4584 28.7627 43.8062 44.0507 43.8062C45.3658 43.8062 46.648 43.7159 47.8974 43.5654L16.598 14.9402C16.4336 16.084 16.335 17.2579 16.335 18.4318Z" fill="white"/>
<path opacity="0.3" d="M53.5523 48.7727L13.376 11.9904C18.1104 18.4619 23.568 25.0237 29.1243 30.4417C33.4642 34.6557 45.9905 44.0771 53.5523 48.7727Z" fill="white"/>
<path opacity="0.3" d="M26.3955 23.8799L13.2116 11.8398V30.3213C13.2116 38.4784 18.9981 45.4014 26.9873 47.8396C23.568 44.679 21.4639 40.3446 21.4639 35.5888C21.4639 31.0738 23.3379 26.9802 26.3955 23.8799Z" fill="white"/>
<path opacity="0.3" d="M44.3466 40.3447C40.9274 44.1674 35.7327 46.6356 29.9134 46.6356C26.0338 46.6356 22.4173 45.552 19.4254 43.6858C23.042 46.8464 27.9407 48.8029 33.3655 48.8029H53.5523V48.7728L44.3466 40.3447Z" fill="white"/>
<path opacity="0.3" d="M14.3952 22.8866C14.3952 19.9067 14.9541 17.0171 16.0062 14.3683L13.2116 11.8398V30.3213C13.2116 40.5252 22.2529 48.8028 33.3984 48.8028H53.5852V48.7727L51.5797 46.9366C48.6536 47.8998 45.5302 48.4115 42.2425 48.4115C26.8558 48.3814 14.3952 36.9734 14.3952 22.8866Z" fill="#F8F6EC"/>
<path d="M53.2235 52.3546C54.6372 51.9934 56.1167 52.776 56.4784 54.0703C56.8729 55.3646 56.0181 56.7191 54.5715 57.0502C53.1578 57.4114 51.6783 56.6288 51.3166 55.3345C50.955 54.0402 51.8098 52.7158 53.2235 52.3546ZM52.6975 50.5185C50.1659 51.1506 48.6535 53.4984 49.344 55.8161C50.0015 58.1338 52.5988 59.5184 55.1304 58.8863C57.662 58.2542 59.1743 55.8763 58.4839 53.5887C57.8264 51.271 55.229 49.9165 52.6975 50.5185Z" fill="white"/>
<path opacity="0.5" d="M56.0506 56.1768C55.6889 56.5983 55.1958 56.9294 54.604 57.0799C53.1902 57.4411 51.7108 56.6584 51.3491 55.3641C51.0861 54.4009 51.4477 53.4377 52.2368 52.8658C51.8423 52.3541 51.5135 51.7822 51.1847 51.2103C49.6066 52.2337 48.8175 54.0698 49.3436 55.8758C50.0011 58.1936 52.5984 59.5782 55.13 58.9461C56.3136 58.6451 57.267 57.9829 57.8917 57.1099C57.267 56.8089 56.6424 56.5079 56.0506 56.1768Z" fill="white"/>
<path d="M14.1646 52.3546C15.5783 52.0235 17.0578 52.8061 17.4195 54.1004C17.7811 55.3947 16.9263 56.7492 15.5126 57.0803C14.0989 57.4114 12.6194 56.6288 12.2577 55.3345C11.8961 54.0402 12.7509 52.6857 14.1646 52.3546ZM13.6386 50.5185C11.107 51.1205 9.59464 53.4984 10.2522 55.8161C10.9097 58.1338 13.5071 59.5184 16.0386 58.9164C18.5702 58.3144 20.0826 55.9365 19.4579 53.6188C18.7675 51.3011 16.1701 49.9165 13.6386 50.5185Z" fill="white"/>
<path opacity="0.5" d="M16.9596 56.207C16.598 56.6284 16.1048 56.9595 15.513 57.0799C14.0993 57.411 12.6198 56.6284 12.2581 55.3341C11.9951 54.3709 12.3896 53.4077 13.1458 52.8358C12.7513 52.3241 12.4225 51.7522 12.1266 51.1803C10.5485 52.1736 9.72656 54.0097 10.2526 55.8157C10.9102 58.1334 13.5075 59.518 16.039 58.916C17.2226 58.6451 18.209 57.9528 18.8008 57.0799C18.1432 56.8391 17.5514 56.5381 16.9596 56.207Z" fill="white"/>
<path d="M14.4938 10.5455C13.8691 10.5455 13.3431 10.0639 13.3431 9.49205C13.3431 7.02384 12.5869 5.15763 11.1403 3.92353C8.80601 1.90682 5.28812 2.11752 5.25524 2.11752C4.63056 2.17772 4.07165 1.72622 4.00589 1.15432C3.94014 0.582418 4.4333 0.0707164 5.05797 0.0105162C5.25524 0.0105162 9.59507 -0.290485 12.6856 2.32822C14.6582 3.98373 15.6445 6.39174 15.6445 9.46194C15.6445 10.0639 15.1514 10.5455 14.4938 10.5455Z" fill="white"/>
</g>
<defs>
<filter id="filter0_d_3_133" x="0" y="0" width="208" height="68" filterUnits="userSpaceOnUse" color-interpolation-filters="sRGB">
<feFlood flood-opacity="0" result="BackgroundImageFix"/>
<feColorMatrix in="SourceAlpha" type="matrix" values="0 0 0 0 0 0 0 0 0 0 0 0 0 0 0 0 0 0 127 0" result="hardAlpha"/>
<feOffset dy="4"/>
<feGaussianBlur stdDeviation="2"/>
<feComposite in2="hardAlpha" operator="out"/>
<feColorMatrix type="matrix" values="0 0 0 0 0 0 0 0 0 0 0 0 0 0 0 0 0 0 0.25 0"/>
<feBlend mode="normal" in2="BackgroundImageFix" result="effect1_dropShadow_3_133"/>
<feBlend mode="normal" in="SourceGraphic" in2="effect1_dropShadow_3_133" result="shape"/>
</filter>
</defs>
</svg>
